<svg xmlns="http://www.w3.org/2000/svg" version="1.1" xmlns:xlink="http://www.w3.org/1999/xlink" xmlns:svgjs="http://svgjs.dev/svgjs" width="1500" height="1500" viewBox="0 0 1500 1500"><rect width="1500" height="1500" fill="#fffdfd"></rect><g transform="matrix(0.6666666666666666,0,0,0.6666666666666666,249.39393939393938,711.272752396001)"><svg viewBox="0 0 396 31" data-background-color="#fffdfd" preserveAspectRatio="xMidYMid meet" height="117" width="1500" xmlns="http://www.w3.org/2000/svg" xmlns:xlink="http://www.w3.org/1999/xlink"><g id="tight-bounds" transform="matrix(1,0,0,1,0.2400000000000091,-0.10840159328245136)"><svg viewBox="0 0 395.52 31.21680318656489" height="31.21680318656489" width="395.52"><g><svg viewBox="0 0 454.93838267586426 35.906457205720564" height="31.21680318656489" width="395.52"><g><rect width="3.221971508732057" height="35.906457205720564" x="47.761930777781274" y="0" fill="#203066" opacity="1" stroke-width="0" stroke="transparent" fill-opacity="1" class="rect-qz-0" data-fill-palette-color="primary" rx="1%" id="qz-0" data-palette-color="#203066"></rect></g><g transform="matrix(1,0,0,1,59.418382675864265,0.08931954528786079)"><svg viewBox="0 0 395.52 35.72781811514484" height="35.72781811514484" width="395.52"><g id="textblocktransform"><svg viewBox="0 0 395.52 35.72781811514484" height="35.72781811514484" width="395.52" id="textblock"><g><svg viewBox="0 0 395.52 35.72781811514484" height="35.72781811514484" width="395.52"><g transform="matrix(1,0,0,1,0,0)"><svg width="395.52" viewBox="3.75 -36.35 409.01 36.95" height="35.72781811514484" data-palette-color="#203066"><path d="M24.75-12.1L24.75-35.8 32.15-35.8 32.15-12.1Q32.15-6.25 28.65-3.1L28.65-3.1Q24.65 0.55 17.95 0.55L17.95 0.55Q11.25 0.55 7.25-3.1L7.25-3.1Q3.75-6.25 3.75-12.1L3.75-12.1 3.75-35.8 11.1-35.8 11.1-12.1Q11.1-5.75 17.95-5.75L17.95-5.75Q24.75-5.75 24.75-12.1L24.75-12.1ZM38.8 0L38.8-26.5 45.7-26.5 45.7-21.45Q47-27.05 53.1-27.05L53.1-27.05Q54.05-27.05 54.45-27.05L54.45-27.05 54.5-20.25Q53.25-20.5 51.9-20.5L51.9-20.5Q48.5-20.5 47.2-19.25L47.2-19.25Q45.7-17.85 45.7-14.2L45.7-14.2 45.7 0 38.8 0ZM57.9 0L57.9-35.8 64.8-35.8 64.8-23.5Q67.25-27.05 72.05-27.05L72.05-27.05Q77.4-27.05 80.5-22.75L80.5-22.75Q83.25-18.95 83.25-13.25L83.25-13.25Q83.25-6.75 79.7-2.85L79.7-2.85Q76.6 0.55 72.05 0.55L72.05 0.55Q67.2 0.55 64.8-2.95L64.8-2.95 64.8 0 57.9 0ZM70.55-21.3L70.55-21.3Q67.9-21.3 66.32-19.13 64.75-16.95 64.75-13.2L64.75-13.2Q64.75-9.5 66.3-7.35 67.85-5.2 70.55-5.2L70.55-5.2Q73.2-5.2 74.77-7.38 76.35-9.55 76.35-13.2L76.35-13.2Q76.35-16.9 74.77-19.1 73.2-21.3 70.55-21.3ZM110.74-1.75L110.74-1.75 110.74 0 103.24 0Q102.49-0.95 102.44-2.7L102.44-2.7Q99.69 0.55 94.44 0.55L94.44 0.55Q90.59 0.55 88.24-1.8L88.24-1.8Q86.34-3.7 86.34-7.05L86.34-7.05Q86.34-12.05 90.34-14.15L90.34-14.15Q92.04-15.05 97.09-15.95L97.09-15.95 102.49-16.95 102.44-18.85Q102.39-21.5 98.44-21.5L98.44-21.5Q95.89-21.5 94.87-20.73 93.84-19.95 93.59-17.9L93.59-17.9 86.99-17.9Q87.59-27.05 98.29-27.05L98.29-27.05Q104.19-27.05 106.79-24.95L106.79-24.95Q109.14-22.95 109.14-18.9L109.14-18.9 109.14-4.1Q109.14-2.3 110.74-1.75ZM102.44-10.85L102.49-12.8 97.44-11.65Q95.29-11.15 94.24-10.2L94.24-10.2Q93.24-9.25 93.24-7.85L93.24-7.85Q93.24-5 96.94-5L96.94-5Q102.29-5 102.44-10.85L102.44-10.85ZM115.39 0L115.39-26.5 122.29-26.5 122.29-22.75Q125.09-27.05 130.19-27.05L130.19-27.05Q134.74-27.05 137.09-24.35L137.09-24.35Q139.09-21.95 139.09-17.85L139.09-17.85 139.09 0 132.24 0 132.24-16.45Q132.24-21.2 127.79-21.2L127.79-21.2Q125.29-21.2 123.79-19.78 122.29-18.35 122.29-16L122.29-16 122.29 0 115.39 0ZM172.14-25L172.14-25 165.24-25Q164.89-30.45 157.74-30.45L157.74-30.45Q154.89-30.45 153.21-29.3 151.54-28.15 151.54-26.2L151.54-26.2Q151.54-24.3 152.94-23.35 154.34-22.4 158.34-21.65L158.34-21.65 163.94-20.6Q168.89-19.65 171.14-17.35 173.39-15.05 173.39-10.85L173.39-10.85Q173.39-5.1 168.99-2.1L168.99-2.1Q165.19 0.55 158.74 0.55L158.74 0.55Q151.39 0.55 147.54-2.85L147.54-2.85Q144.19-5.8 143.89-11.05L143.89-11.05 151.04-11.05Q151.44-5.35 159.09-5.35L159.09-5.35Q162.49-5.35 164.41-6.58 166.34-7.8 166.34-9.95L166.34-9.95Q166.34-12.05 164.81-13.2 163.29-14.35 159.59-15.05L159.59-15.05 154.59-16Q149.14-17 146.81-19.18 144.49-21.35 144.49-25.45L144.49-25.45Q144.49-31 148.54-33.85L148.54-33.85Q152.04-36.35 158.04-36.35L158.04-36.35Q165.29-36.35 168.94-33.05L168.94-33.05Q172.09-30.15 172.14-25ZM201.24-11.45L201.24-11.45 183.44-11.45Q183.59-8.25 184.44-6.9L184.44-6.9Q185.89-4.7 188.99-4.7L188.99-4.7Q192.84-4.7 194.14-7.9L194.14-7.9 200.94-7.9Q199.79-4 196.46-1.73 193.14 0.55 188.69 0.55L188.69 0.55Q182.64 0.55 179.39-3.5L179.39-3.5Q176.53-7.05 176.53-12.85L176.53-12.85Q176.53-19.9 180.24-23.75L180.24-23.75Q183.49-27.05 188.78-27.05L188.78-27.05Q192.84-27.05 195.89-25.05 198.94-23.05 200.24-19.45L200.24-19.45Q201.29-16.65 201.29-12.7L201.29-12.7Q201.29-12.2 201.24-11.45ZM183.53-16L194.09-16Q193.59-21.8 188.74-21.8L188.74-21.8Q184.19-21.8 183.53-16L183.53-16ZM206.13 0L206.13-26.5 213.03-26.5 213.03-21.45Q214.33-27.05 220.43-27.05L220.43-27.05Q221.38-27.05 221.78-27.05L221.78-27.05 221.83-20.25Q220.58-20.5 219.23-20.5L219.23-20.5Q215.83-20.5 214.53-19.25L214.53-19.25Q213.03-17.85 213.03-14.2L213.03-14.2 213.03 0 206.13 0ZM248.33-26.5L239.23 0 231.98 0 222.73-26.5 230.03-26.5 235.73-7.1 241.13-26.5 248.33-26.5ZM252.48-26.5L259.38-26.5 259.38 0 252.48 0 252.48-26.5ZM255.88-35.6L255.88-35.6Q257.23-35.6 258.15-34.65 259.08-33.7 259.08-32.35L259.08-32.35Q259.08-31 258.15-30.08 257.23-29.15 255.88-29.15L255.88-29.15Q254.53-29.15 253.58-30.08 252.63-31 252.63-32.35L252.63-32.35Q252.63-33.7 253.58-34.65 254.53-35.6 255.88-35.6ZM288.43-16.8L288.43-16.8 281.88-16.8Q281.28-19.4 280.15-20.45 279.03-21.5 276.98-21.5L276.98-21.5Q273.88-21.5 272.68-19.3L272.68-19.3Q271.38-16.75 271.38-13.05L271.38-13.05Q271.38-9.3 272.85-7.13 274.32-4.95 276.93-4.95L276.93-4.95Q278.98-4.95 280.1-6.03 281.23-7.1 281.88-9.6L281.88-9.6 288.43-9.6Q287.93-4.6 284.43-1.85L284.43-1.85Q281.38 0.6 276.88 0.6L276.88 0.6Q270.57 0.6 267.32-3.45L267.32-3.45Q264.48-6.95 264.48-12.9L264.48-12.9Q264.48-20.1 268.23-23.8L268.23-23.8Q271.48-27.05 277.03-27.05L277.03-27.05Q282.32-27.05 285.43-24L285.43-24Q288.07-21.3 288.43-16.8ZM316.27-11.45L316.27-11.45 298.47-11.45Q298.62-8.25 299.47-6.9L299.47-6.9Q300.92-4.7 304.02-4.7L304.02-4.7Q307.87-4.7 309.17-7.9L309.17-7.9 315.97-7.9Q314.82-4 311.5-1.73 308.17 0.55 303.72 0.55L303.72 0.55Q297.67 0.55 294.42-3.5L294.42-3.5Q291.57-7.05 291.57-12.85L291.57-12.85Q291.57-19.9 295.27-23.75L295.27-23.75Q298.52-27.05 303.82-27.05L303.82-27.05Q307.87-27.05 310.92-25.05 313.97-23.05 315.27-19.45L315.27-19.45Q316.32-16.65 316.32-12.7L316.32-12.7Q316.32-12.2 316.27-11.45ZM298.57-16L309.12-16Q308.62-21.8 303.77-21.8L303.77-21.8Q299.22-21.8 298.57-16L298.57-16ZM343.37 0L343.37-16.25 329.17-16.25 329.17 0 321.82 0 321.82-35.8 329.17-35.8 329.17-22.4 343.32-22.4 343.32-35.8 350.72-35.8 350.72 0 343.37 0ZM380.87-26.5L380.87 0 374.02 0 374.02-3.75Q371.22 0.55 366.07 0.55L366.07 0.55Q361.52 0.55 359.17-2.15L359.17-2.15Q357.17-4.5 357.17-8.6L357.17-8.6 357.17-26.5 364.07-26.5 364.07-10.05Q364.07-5.3 368.47-5.3L368.47-5.3Q370.97-5.3 372.49-6.7 374.02-8.1 374.02-10.5L374.02-10.5 374.02-26.5 380.87-26.5ZM387.42 0L387.42-35.8 394.31-35.8 394.31-23.5Q396.76-27.05 401.56-27.05L401.56-27.05Q406.92-27.05 410.01-22.75L410.01-22.75Q412.76-18.95 412.76-13.25L412.76-13.25Q412.76-6.75 409.21-2.85L409.21-2.85Q406.12 0.55 401.56 0.55L401.56 0.55Q396.71 0.55 394.31-2.95L394.31-2.95 394.31 0 387.42 0ZM400.06-21.3L400.06-21.3Q397.42-21.3 395.84-19.13 394.26-16.95 394.26-13.2L394.26-13.2Q394.26-9.5 395.81-7.35 397.37-5.2 400.06-5.2L400.06-5.2Q402.71-5.2 404.29-7.38 405.87-9.55 405.87-13.2L405.87-13.2Q405.87-16.9 404.29-19.1 402.71-21.3 400.06-21.3Z" opacity="1" transform="matrix(1,0,0,1,0,0)" fill="#203066" class="wordmark-text-0" data-fill-palette-color="primary" id="text-0"></path></svg></g></svg></g></svg></g></svg></g><g transform="matrix(1,0,0,1,0,0.08931954528786079)"><svg viewBox="0 0 39.327450388430336 35.72781811514484" height="35.72781811514484" width="39.327450388430336"><g><svg xmlns="http://www.w3.org/2000/svg" xmlns:xlink="http://www.w3.org/1999/xlink" version="1.1" x="0" y="0" viewBox="1.3562254101114217 5.817157287525381 97.28754917977716 88.38284271247461" enable-background="new 0 0 100 100" xml:space="preserve" height="35.72781811514484" width="39.327450388430336" class="icon-icon-0" data-fill-palette-color="accent" id="icon-0"><path d="M86.7 45.9c-0.4-0.3-0.9-0.5-1.4-0.6 0 0 0-0.1-0.1-0.1 0.3-2.5 1.2-7.3 1.9-9.8 0.3-1.2 1.1-2.1 2.3-2.6-0.3 0.9-0.4 1.7-0.6 2.6-0.5 2.8-1.1 7.8-1.2 10.4 0 0.3 0 0.5 0 0.8C87.4 46.4 87.1 46.1 86.7 45.9zM2.6 30.9c-0.9 0.8-1.4 2-1.2 3.2l2.5 24.5 0.1 0.9c0.5 3.1 1.9 5.6 4 7.9l14.5 17.4 0.3 8c0 0.7 0.6 1.3 1.3 1.3l15.2 0.1c0.7 0 1.3-0.6 1.3-1.3l0.5-9.7c0.1-1 0.2-2 0.2-2.8l0 0h0c0-1-0.1-1.7-0.1-1.7-0.7-3-1.8-9-9.9-14.8-0.8-0.6-1.9-1.7-2.5-2.4l-9-11.6c-0.9-1.6-3.2-2.1-4.9-1.1-1.7 1-2.2 3.3-1.3 4.8l8.7 14.1c0.3 0.5 0.1 1.1-0.4 1.3-0.4 0.2-1 0.1-1.2-0.3l-0.4-0.5c0 0-6.6-9-9.8-16.1-0.6-1.3-0.9-2.6-1-4 0-0.2 0-0.5 0-0.7-0.1-3.2-0.6-7.8-1.2-11-0.2-0.9-0.6-4.2-1.6-5.3C5.6 29.7 3.8 30 2.6 30.9zM12.8 35.4c0.7 2.5 1.5 7.3 1.9 9.8 0 0 0 0.1-0.1 0.1-0.5 0.2-0.9 0.4-1.4 0.6-0.4 0.2-0.7 0.5-1 0.7 0-0.3 0-0.5 0-0.8-0.1-2.7-0.7-7.6-1.2-10.4-0.1-0.8-0.3-1.7-0.6-2.6C11.8 33.3 12.5 34.2 12.8 35.4zM17.7 38.9c0.4 1.5 1.5 4.8 1.7 6.4-0.7-0.3-1.4-0.4-2.2-0.4 0-0.1 0-0.2 0-0.3l-0.2-1.2c-0.2-1.8-1.3-5.1-1.7-7C16.6 36.8 17.3 37.7 17.7 38.9zM97.4 30.9c0.9 0.8 1.4 2 1.2 3.2l-2.5 24.5-0.1 0.9c-0.5 3.1-1.9 5.6-4.1 7.9L77.4 84.8l-0.3 8c0 0.7-0.6 1.3-1.3 1.3l-15.2 0.1c-0.7 0-1.3-0.6-1.3-1.3l-0.5-9.7c-0.1-1-0.2-2-0.2-2.8v0c0-1 0.1-1.7 0.1-1.7 0.7-3 1.8-9 9.9-14.8 0.8-0.6 1.9-1.7 2.5-2.4l9-11.6c0.9-1.6 3.2-2.1 4.9-1.1 1.7 1 2.2 3.3 1.3 4.8l-8.7 14.1c-0.3 0.5-0.1 1.1 0.4 1.3 0.4 0.2 1 0.1 1.2-0.3l0.4-0.5c0 0 6.6-9 9.8-16.1 0.6-1.3 0.9-2.6 1-4 0-0.2 0-0.5 0-0.7 0.1-3.2 0.6-7.8 1.2-11 0.2-0.9 0.6-4.2 1.6-5.3C94.4 29.7 96.2 30 97.4 30.9zM82.8 44.6c0 0.1 0 0.2 0 0.3-0.7 0-1.5 0.2-2.2 0.4 0.2-1.6 1.3-4.9 1.7-6.4 0.3-1.2 1-2.1 2.3-2.5-0.4 1.8-1.4 5.2-1.7 7L82.8 44.6zM24.4 33.9C24.4 19.8 35.9 8.3 50 8.3V6.1c0-0.2 0.3-0.4 0.5-0.2l6 4.1c0.2 0.1 0.2 0.4 0 0.5l-6 4.1c-0.2 0.1-0.5 0-0.5-0.2v-2.2c-12 0-21.8 9.8-21.8 21.8 0 6.9 3.4 13.5 9 17.6L35 54.6C28.4 49.8 24.4 42.1 24.4 33.9zM37.7 44.2l2 2c0.4 0.4 1.1 0.4 1.5 0l1.7-1.7c1.4 0.9 2.9 1.6 4.6 1.9v2.4c0 0.6 0.5 1.1 1.1 1.1h2.9c0.6 0 1.1-0.5 1.1-1.1v-2.4c1.7-0.3 3.2-1 4.6-1.9l1.7 1.7c0.4 0.4 1.1 0.4 1.5 0l2-2c0.4-0.4 0.4-1.1 0-1.5L60.7 41c0.9-1.4 1.6-2.9 1.9-4.6H65c0.6 0 1.1-0.5 1.1-1.1v-2.9c0-0.6-0.5-1.1-1.1-1.1h-2.4c-0.3-1.7-1-3.3-1.9-4.6l1.7-1.7c0.4-0.4 0.4-1.1 0-1.5l-2-2c-0.4-0.4-1.1-0.4-1.5 0l-1.7 1.7c-1.4-0.9-2.9-1.6-4.6-1.9v-2.4c0-0.6-0.5-1.1-1.1-1.1h-2.9c-0.6 0-1.1 0.5-1.1 1.1v2.4c-1.7 0.3-3.2 1-4.6 1.9l-1.7-1.7c-0.4-0.4-1.1-0.4-1.5 0l-2 2c-0.4 0.4-0.4 1.1 0 1.5l1.7 1.7c-0.9 1.4-1.6 2.9-1.9 4.6H35c-0.6 0-1.1 0.5-1.1 1.1v2.9c0 0.6 0.5 1.1 1.1 1.1h2.4c0.3 1.7 1 3.2 1.9 4.6l-1.7 1.7C37.2 43.1 37.2 43.8 37.7 44.2zM50 28.1c3.2 0 5.8 2.6 5.8 5.8 0 3.2-2.6 5.8-5.8 5.8-3.2 0-5.8-2.6-5.8-5.8C44.2 30.7 46.8 28.1 50 28.1zM50 59.5L50 59.5l0 2.2c0 0.2-0.3 0.4-0.5 0.2l-6-4.1c-0.2-0.1-0.2-0.4 0-0.5l6-4.1c0.2-0.1 0.5 0 0.5 0.2v2.2h0c12 0 21.8-9.8 21.8-21.8 0-6.9-3.4-13.5-9-17.6l2.2-3.1c6.6 4.8 10.6 12.5 10.6 20.7C75.6 48 64.1 59.5 50 59.5z" fill="#4c40ed" data-fill-palette-color="accent"></path></svg></g></svg></g></svg></g><defs></defs></svg><rect width="395.52" height="31.21680318656489" fill="none" stroke="none" visibility="hidden"></rect></g></svg></g></svg>